<?xml version="1.0" encoding="UTF-8"?>
<svg version="1.1" xmlns="http://www.w3.org/2000/svg" width="512" height="512">
<path d="M0 0 C-1.53316826 4.04543903 -3.40143308 7.83947541 -5.375 11.6875 C-8.24881633 17.34534928 -10.75994385 23.0589815 -13 29 C-17.87060066 28.03740034 -22.7363764 27.06407436 -27.5859375 26 C-84.54701766 13.87314796 -144.48294589 25.41189246 -193.51171875 56.82421875 C-197.43189652 59.4293475 -201.23638006 62.17449304 -205 65 C-205.60634277 65.4522998 -206.21268555 65.90459961 -206.83740234 66.37060547 C-215.34766079 72.76521684 -223.31018632 79.64452605 -231 87 C-231.94875 87.9075 -232.8975 88.815 -233.875 89.75 C-270.26692873 125.3332192 -296.37682153 178.57470937 -297.21533203 229.88607788 C-297.22290527 230.69453156 -297.23047852 231.50298523 -297.23828125 232.3359375 C-297.24802979 233.20489655 -297.25777832 234.07385559 -297.26782227 234.96914673 C-297.44303949 254.64669839 -297.17748936 273.67655615 -293 293 C-292.81276367 293.86866699 -292.62552734 294.73733398 -292.43261719 295.63232422 C-291.19109558 301.16556515 -289.69093321 306.58831979 -288 312 C-287.75411133 312.79390137 -287.50822266 313.58780273 -287.25488281 314.40576172 C-274.08592754 356.11846884 -247.83461339 395.24297812 -213 422 C-212.43941895 422.4316748 -211.87883789 422.86334961 -211.30126953 423.30810547 C-202.24925181 430.23544421 -192.91445503 436.38311507 -183 442 C-182.40783691 442.3412793 -181.81567383 442.68255859 -181.20556641 443.03417969 C-158.9279143 455.8079226 -134.23398619 463.70750902 -109 468 C-107.73929688 468.21527344 -106.47859375 468.43054688 -105.1796875 468.65234375 C-45.28085496 477.67008008 13.62082678 461.13615546 61.98242188 425.46508789 C69.26700568 419.96070031 75.94120034 413.92286459 82.44726562 407.52636719 C83.82254646 406.17444018 85.21476461 404.83979069 86.609375 403.5078125 C118.45077945 372.65458957 138.97361827 329.94301108 148 287 C148.17789062 286.19224121 148.35578125 285.38448242 148.5390625 284.55224609 C154.18090029 257.93821963 152.90115343 227.42315547 147 201 C146.84031738 200.28344238 146.68063477 199.56688477 146.51611328 198.82861328 C145.88125579 196.0320695 145.2178896 193.24320622 144.5390625 190.45703125 C143.51771752 185.80177044 143.51429908 182.34916921 145.125 177.875 C147.81483493 173.75058644 150.38753929 170.77564863 155.14453125 169.36328125 C160.50822774 168.51349629 164.24692808 169.1664379 169 172 C180.99449908 182.32084805 181.71916045 209.05075778 183 224 C183.14784842 227.23218418 183.18623525 230.46003642 183.203125 233.6953125 C183.21018463 234.59717789 183.21724426 235.49904327 183.22451782 236.42823792 C183.45396145 274.35510732 183.45396145 274.35510732 180 291 C179.69400879 292.49055908 179.69400879 292.49055908 179.38183594 294.01123047 C171.94199006 329.19076368 158.32900137 363.82629028 137 393 C136.49855469 393.68787598 135.99710937 394.37575195 135.48046875 395.08447266 C129.23593667 403.58334159 122.73188418 411.68558719 115.4921875 419.35546875 C113.19779345 421.79011573 110.99907581 424.28134707 108.8125 426.8125 C105.78111153 430.23741558 102.58980594 433.26618269 99.09375 436.2109375 C97.6665919 437.43041215 96.27128521 438.68792852 94.90625 439.9765625 C81.83433854 452.28743802 66.52116091 462.08194899 51 471 C50.26765137 471.4237793 49.53530273 471.84755859 48.78076172 472.28417969 C16.15885014 490.93551213 -22.31839228 501.93998753 -59.96484375 502.23828125 C-60.98789612 502.2480751 -62.01094849 502.25786896 -63.06500244 502.26795959 C-105.69460015 502.59230558 -105.69460015 502.59230558 -126 498 C-127.46614746 497.67854004 -127.46614746 497.67854004 -128.96191406 497.35058594 C-197.34370049 481.97307783 -255.310116 437.9801476 -292.59765625 379.25732422 C-309.95354876 351.31989696 -321.64459152 320.4651516 -327 288 C-327.18401367 286.96069336 -327.36802734 285.92138672 -327.55761719 284.85058594 C-329.49879682 272.53568698 -329.39687204 260.18878606 -329.375 247.75 C-329.37445618 246.59181763 -329.37391235 245.43363525 -329.37335205 244.24035645 C-329.33641699 227.1586294 -328.76269732 210.72596276 -325 194 C-324.78569336 192.99308105 -324.57138672 191.98616211 -324.35058594 190.94873047 C-316.36892116 153.96236972 -300.16753731 118.25543991 -276 89 C-275.36312256 88.22100342 -275.36312256 88.22100342 -274.71337891 87.42626953 C-265.29423324 75.92870446 -255.48914472 64.47536474 -244 55 C-243.09507812 54.20722656 -242.19015625 53.41445313 -241.2578125 52.59765625 C-174.45196881 -5.78261048 -84.62815455 -23.23810655 0 0 Z " fill="#4B9132" transform="translate(329,10)"/>
<path d="M0 0 C0.69174316 -0.00335861 1.38348633 -0.00671722 2.09619141 -0.01017761 C4.37290261 -0.01964196 6.64953991 -0.02162843 8.92626953 -0.02270508 C10.51661204 -0.02592075 12.10695425 -0.02928506 13.69729614 -0.03279114 C17.02769659 -0.03877108 20.35807113 -0.0406322 23.68847656 -0.04003906 C27.94416003 -0.03993749 32.19967645 -0.05358921 36.45532036 -0.07081127 C39.73939773 -0.0819603 43.02343509 -0.08395738 46.30752945 -0.08342934 C47.87592265 -0.08460509 49.44431704 -0.08900407 51.0126915 -0.0967617 C53.21170317 -0.10662064 55.41035688 -0.10366058 57.609375 -0.09765625 C58.85782196 -0.09908127 60.10626892 -0.10050629 61.39254761 -0.10197449 C65.97029652 0.21760287 70.31616748 0.77873824 73.89501953 3.80151367 C74.59498047 4.71416992 74.59498047 4.71416992 75.30908203 5.64526367 C75.79119141 6.25370117 76.27330078 6.86213867 76.77001953 7.48901367 C79.6001409 11.51576354 79.37773907 15.36183411 78.93408203 20.14526367 C77.01345056 25.50281463 74.01733771 28.60363583 68.93408203 31.14526367 C67.05488655 31.23637149 65.17241411 31.26279204 63.29101562 31.25878906 C62.10994232 31.25871353 60.92886902 31.258638 59.71200562 31.25856018 C58.43177521 31.2533989 57.1515448 31.24823761 55.83251953 31.24291992 C54.52578278 31.24150497 53.21904602 31.24009003 51.87271118 31.2386322 C48.39731945 31.23481262 44.92196947 31.2249871 41.44659424 31.21392822 C37.90076268 31.2037021 34.35492419 31.19907725 30.80908203 31.1940918 C23.85071183 31.18389489 16.89245626 31.16432191 9.93408203 31.14526367 C9.93408203 47.64526367 9.93408203 64.14526367 9.93408203 81.14526367 C14.12353516 81.09885742 18.31298828 81.05245117 22.62939453 81.00463867 C25.97971114 80.97889656 29.32999963 80.95721193 32.68035889 80.93826294 C36.21175127 80.91718075 39.74275672 80.88903096 43.27392578 80.84350586 C47.32995246 80.79154411 51.38557232 80.772284 55.44189453 80.75463867 C56.7014798 80.73399353 57.96106506 80.71334839 59.25881958 80.69207764 C70.11869846 80.68929892 70.11869846 80.68929892 74.93408203 85.14526367 C78.26813153 88.82421485 78.82311967 91.64727185 79.18408203 96.52026367 C78.81178118 101.91862604 77.04617874 105.37143184 73.05908203 108.95776367 C68.55305702 112.11198118 64.71757149 112.27120273 59.31762695 112.25878906 C58.21686325 112.25871353 57.11609955 112.258638 55.98197937 112.25856018 C54.21610222 112.25081825 54.21610222 112.25081825 52.41455078 112.24291992 C51.20084305 112.24150497 49.98713531 112.24009003 48.73664856 112.2386322 C44.86493452 112.23304032 40.99327856 112.22048925 37.12158203 112.20776367 C34.49462974 112.20274763 31.86767655 112.1981849 29.24072266 112.1940918 C22.80513546 112.18392499 16.36967368 112.1643478 9.93408203 112.14526367 C9.93408203 128.31526367 9.93408203 144.48526367 9.93408203 161.14526367 C14.05134766 161.11045898 18.16861328 161.0756543 22.41064453 161.03979492 C25.7036156 161.02048779 28.99657056 161.00422445 32.28956604 160.99001312 C35.76021778 160.97420308 39.23064799 160.95309271 42.70117188 160.91894531 C46.68763512 160.87996907 50.67400943 160.8655273 54.66064453 160.85229492 C55.89835602 160.83681107 57.1360675 160.82132721 58.4112854 160.80537415 C69.21075182 160.80326595 69.21075182 160.80326595 73.93408203 164.14526367 C78.25946133 168.8213494 79.31479136 172.58174199 79.20361328 178.79760742 C78.75679428 182.68946567 77.46329526 185.19769711 74.93408203 188.14526367 C67.2442501 193.56126657 58.60997987 192.74560802 49.59033203 192.71166992 C47.89456848 192.71691188 46.19880785 192.72319045 44.50305176 192.73045349 C40.9592511 192.74082919 37.41585272 192.73633662 33.87207031 192.72167969 C29.34600867 192.7044858 24.82121589 192.72800861 20.29529572 192.76316929 C16.79664813 192.78519901 13.29830167 192.7836886 9.79960632 192.77540398 C8.1315522 192.7745877 6.46347524 192.7813889 4.79548645 192.796175 C-10.80503925 192.91329869 -10.80503925 192.91329869 -16.63269043 188.80284119 C-20.56393615 184.25621873 -21.44208206 179.88845815 -21.45359802 174.01025391 C-21.45898356 173.31515685 -21.4643691 172.6200598 -21.46991783 171.90389919 C-21.48416511 169.58703573 -21.47710204 167.27074622 -21.4699707 164.95385742 C-21.47567593 163.28784731 -21.48264078 161.62184112 -21.49076843 159.95584106 C-21.50869674 155.43935214 -21.50753226 150.92305754 -21.50182605 146.40654373 C-21.49873418 142.63406572 -21.50482653 138.86162503 -21.51086479 135.08915234 C-21.5249069 126.18953021 -21.52335092 117.29000409 -21.51196289 108.39038086 C-21.50047754 99.21191928 -21.51456504 90.03374975 -21.54135936 80.85532665 C-21.56351426 72.97065518 -21.57015435 65.0860754 -21.56428295 57.20137501 C-21.5609122 52.49403195 -21.56333647 47.78687618 -21.58053398 43.07955933 C-21.59599806 38.65368781 -21.59205368 34.22824924 -21.57322884 29.80239487 C-21.56954167 28.1794531 -21.57265518 26.55647929 -21.58311462 24.93356705 C-21.5963182 22.71530381 -21.58478485 20.49847532 -21.56712341 18.28027344 C-21.56691413 17.03995865 -21.56670485 15.79964386 -21.56648922 14.52174377 C-20.80650651 9.39546757 -18.32202022 6.33695042 -14.62841797 2.83276367 C-10.03805038 -0.19016133 -5.3839186 0.01645933 0 0 Z " fill="#4B9132" transform="translate(146.06591796875,159.854736328125)"/>
<path d="M0 0 C1.45141602 2.54125977 1.45141602 2.54125977 2.69140625 5.62890625 C2.93307022 6.22264542 3.17473419 6.81638458 3.42372131 7.42811584 C4.30235513 9.61137607 5.1525464 11.80444859 6 14 C6.3495575 14.89853699 6.69911499 15.79707397 7.05926514 16.72283936 C10.05813038 24.44612199 12.99929031 32.19098847 15.9375 39.9375 C17.34171365 43.62996619 18.74698632 47.32202815 20.15235901 51.01405334 C21.09118347 53.48051581 22.02969142 55.94709878 22.96788025 58.4138031 C27.39228903 70.04326359 31.85629095 81.65730383 36.33590698 93.26559448 C37.18147998 95.45681437 38.02643259 97.64827222 38.87109375 99.83984375 C39.13232529 100.51687851 39.39355682 101.19391327 39.66270447 101.89146423 C41.03032048 105.44507773 42.3784024 109.00504583 43.70361328 112.57470703 C43.97963882 113.31741348 44.25566437 114.06011993 44.54005432 114.82533264 C45.06698669 116.24677668 45.59146603 117.66913318 46.11314392 119.09251404 C47.13433571 122.29281555 47.13433571 122.29281555 49 125 C49.22978043 124.39755966 49.45956085 123.79511932 49.69630432 123.17442322 C73.96214678 59.55723621 73.96214678 59.55723621 82.53933716 37.39067078 C84.17381047 33.16064473 85.78756454 28.92346767 87.38317871 24.67863464 C88.13385777 22.6857938 88.89064128 20.69539574 89.64990234 18.70581055 C90.55351482 16.3352724 91.44679099 13.96075189 92.32666016 11.58129883 C94.60841792 5.64550193 96.95187191 0.10328283 102 -4 C106.75798412 -6.09844181 110.72849584 -6.3869712 115.75 -5 C120.15188543 -3.2223155 122.57096315 -1.17490708 125 3 C127.24462285 9.19371868 125.74042418 14.50073287 123.5234375 20.47265625 C123.25696915 21.20793549 122.99050079 21.94321472 122.71595764 22.70077515 C119.48446862 31.54265644 116.05584662 40.31094639 112.6282959 49.07818604 C110.53063317 54.44534265 108.44289957 59.81635721 106.35546875 65.1875 C105.91897003 66.31044464 105.48247131 67.43338928 105.03274536 68.59036255 C100.05325598 81.41541697 95.1502341 94.26950428 90.25 107.125 C89.36530529 109.44428161 88.48054012 111.76353634 87.59570312 114.08276367 C84.28905559 122.75061752 80.9829192 131.41866457 77.68115234 140.08837891 C75.92449898 144.70005676 74.16383601 149.31018382 72.40002441 153.91912842 C71.7683901 155.57175133 71.13821386 157.22493242 70.50964355 158.87872314 C61.99416634 181.27969875 61.99416634 181.27969875 55 185 C50.33747142 186.55417619 46.51246673 186.54448802 41.875 184.875 C35.12206832 180.47091412 32.71632101 174.61604227 30.05859375 167.3046875 C29.6986734 166.34564514 29.33875305 165.38660278 28.96792603 164.39849854 C28.18933917 162.31973613 27.41621804 160.2389201 26.64797974 158.15631104 C25.41386462 154.81093032 24.1658312 151.47104509 22.91381836 148.13232422 C21.59936134 144.62682692 20.28571347 141.12105252 18.97627258 137.61367798 C14.82221268 126.48992352 10.57182486 115.40439858 6.29760742 104.32635498 C5.06104337 101.12122446 3.82615515 97.91545325 2.59179688 94.70947266 C0.92532717 90.38130893 -0.74167326 86.05335036 -2.40917969 81.72558594 C-6.51929126 71.05734502 -10.62421231 60.38710677 -14.72879028 49.71673584 C-16.03295051 46.32680851 -17.33760914 42.93707333 -18.64233398 39.54736328 C-19.43995969 37.47429089 -20.23756804 35.40121182 -21.03515625 33.328125 C-21.39360626 32.39719025 -21.75205627 31.46625549 -22.12136841 30.5071106 C-23.08345952 28.00570827 -24.04200136 25.50297183 -25 23 C-25.29587509 22.23450836 -25.59175018 21.46901672 -25.89659119 20.68032837 C-27.99584467 15.19480476 -28.88048675 10.8307789 -28 5 C-25.80597419 0.61194838 -23.12662078 -2.34717236 -19 -5 C-11.62601459 -7.2941288 -5.53817617 -5.00723478 0 0 Z " fill="#4B9132" transform="translate(284,166)"/>
<path d="M0 0 C2.65977599 1.98763605 5.35420751 3.92636431 8.04443359 5.87255859 C9.58655768 6.99693149 11.12841476 8.12167136 12.66943359 9.24755859 C11.01016699 14.32592003 8.01401518 18.35197747 4.98193359 22.68505859 C3.80060982 24.39185859 2.61963409 26.09889952 1.43896484 27.80615234 C0.82102051 28.6967334 0.20307617 29.58731445 -0.43359375 30.50488281 C-3.59041826 35.06907413 -6.70881573 39.65934118 -9.83056641 44.24755859 C-16.11858933 53.47546776 -22.42060695 62.69372618 -28.72900391 71.90771484 C-30.92223166 75.1119671 -33.11387529 78.31730149 -35.30541992 81.52270508 C-36.92578302 83.89151818 -38.54806641 86.25900798 -40.17041016 88.62646484 C-42.29739406 91.73190074 -44.41329006 94.84451349 -46.52197266 97.96240234 C-47.27969971 99.07772339 -47.27969971 99.07772339 -48.05273438 100.21557617 C-49.00717909 101.6205277 -49.9582054 103.02780952 -50.90527344 104.43774414 C-54.10490777 109.13472928 -54.10490777 109.13472928 -56.33056641 110.24755859 C-60.3411466 107.59662585 -64.33871113 104.92657349 -68.33056641 102.24755859 C-68.99378906 101.80347656 -69.65701172 101.35939453 -70.34033203 100.90185547 C-88.09795781 88.9795968 -101.93122658 77.16094455 -107.14306641 55.37255859 C-110.44696529 37.90366797 -107.36016383 21.02214182 -97.33056641 6.24755859 C-87.57661021 -6.66635049 -74.31419877 -15.63107847 -58.21728516 -18.43603516 C-35.50062199 -20.92595358 -17.92083177 -13.43673138 0 0 Z " fill="#4B9132" transform="translate(450.33056640625,19.75244140625)"/>
<path d="M0 0 C5.13354637 1.66355479 9.20834573 4.72161109 13.5625 7.8125 C14.31724609 8.33392578 15.07199219 8.85535156 15.84960938 9.39257812 C20.81202813 12.89469039 25.01323825 16.03971474 27 22 C27.36826224 27.61599916 27.21556007 31.17665989 24 36 C20.37213158 39.79660649 17.39095593 41.84160114 12.171875 42.09472656 C5.09858952 41.78622445 -0.7758194 37.41617227 -6.3125 33.4375 C-7.3653418 32.6959668 -7.3653418 32.6959668 -8.43945312 31.93945312 C-9.73503193 31.02674317 -11.02809889 30.11044797 -12.31762695 29.18920898 C-13.8597039 28.09917027 -15.42872733 27.04751511 -17 26 C-15.61791193 22.09226876 -13.79890116 19.11956009 -11.3125 15.8125 C-7.44352761 10.60671631 -3.69836385 5.32795543 0 0 Z " fill="#4B9132" transform="translate(480,56)"/>
<path d="M0 0 C5.13354637 1.66355479 9.20834573 4.72161109 13.5625 7.8125 C14.31724609 8.33392578 15.07199219 8.85535156 15.84960938 9.39257812 C20.81202813 12.89469039 25.01323825 16.03971474 27 22 C27.63098553 27.33751697 27.41860209 31.93459686 24.3828125 36.48828125 C21.19465401 39.97364095 17.49662537 41.8023642 12.77636719 42.17602539 C5.0319245 41.7126758 0.06481553 38.38425652 -6.125 33.9375 C-7.08148438 33.27427734 -8.03796875 32.61105469 -9.0234375 31.92773438 C-11.36195988 30.30246132 -13.68618253 28.66016244 -16 27 C-15.45516747 23.49879967 -14.68615621 21.10967987 -12.63671875 18.22265625 C-12.16169922 17.54396484 -11.68667969 16.86527344 -11.19726562 16.16601562 C-10.69904297 15.47185547 -10.20082031 14.77769531 -9.6875 14.0625 C-8.71192606 12.67860638 -7.73666074 11.29449515 -6.76171875 9.91015625 C-6.29427246 9.25160645 -5.82682617 8.59305664 -5.34521484 7.91455078 C-3.51378324 5.30800149 -1.75257241 2.66008022 0 0 Z " fill="#4B9132" transform="translate(442,111)"/>
</svg>
